<?xml version="1.0" encoding="UTF-8" standalone="no"?>
<!DOCTYPE svg PUBLIC "-//W3C//DTD SVG 1.1//EN"
 "http://www.w3.org/Graphics/SVG/1.1/DTD/svg11.dtd">
<!-- Generated by graphviz version 2.40.1 (20161225.0304)
 -->
<!-- Title: %3 Pages: 1 -->
<svg width="3766pt" height="188pt"
 viewBox="0.00 0.00 3765.87 188.00" xmlns="http://www.w3.org/2000/svg" xmlns:xlink="http://www.w3.org/1999/xlink">
<g id="graph0" class="graph" transform="scale(1 1) rotate(0) translate(4 184)">
<title>%3</title>
<polygon fill="#ffffff" stroke="transparent" points="-4,4 -4,-184 3761.8685,-184 3761.8685,4 -4,4"/>
<!-- spear_station/sar_driving.launch -->
<g id="node1" class="node">
<title>spear_station/sar_driving.launch</title>
<ellipse fill="none" stroke="#000000" cx="163.1355" cy="-162" rx="163.2712" ry="18"/>
<text text-anchor="middle" x="163.1355" y="-158.3" font-family="Times,serif" font-size="14.00" fill="#000000">spear_station/sar_driving.launch</text>
</g>
<!-- spear_station/joystick.launch -->
<g id="node2" class="node">
<title>spear_station/joystick.launch</title>
<ellipse fill="none" stroke="#000000" cx="492.1355" cy="-162" rx="147.5738" ry="18"/>
<text text-anchor="middle" x="492.1355" y="-158.3" font-family="Times,serif" font-size="14.00" fill="#000000">spear_station/joystick.launch</text>
</g>
<!-- spear_station/station.launch -->
<g id="node3" class="node">
<title>spear_station/station.launch</title>
<ellipse fill="none" stroke="#000000" cx="801.1355" cy="-162" rx="142.9746" ry="18"/>
<text text-anchor="middle" x="801.1355" y="-158.3" font-family="Times,serif" font-size="14.00" fill="#000000">spear_station/station.launch</text>
</g>
<!-- spear_station/udp.launch -->
<g id="node4" class="node">
<title>spear_station/udp.launch</title>
<ellipse fill="none" stroke="#000000" cx="1090.1355" cy="-162" rx="128.0773" ry="18"/>
<text text-anchor="middle" x="1090.1355" y="-158.3" font-family="Times,serif" font-size="14.00" fill="#000000">spear_station/udp.launch</text>
</g>
<!-- spear_rover/rover.launch -->
<g id="node5" class="node">
<title>spear_rover/rover.launch</title>
<ellipse fill="none" stroke="#000000" cx="1820.1355" cy="-90" rx="127.2775" ry="18"/>
<text text-anchor="middle" x="1820.1355" y="-86.3" font-family="Times,serif" font-size="14.00" fill="#000000">spear_rover/rover.launch</text>
</g>
<!-- canros/server.launch -->
<g id="node6" class="node">
<title>canros/server.launch</title>
<ellipse fill="none" stroke="#000000" cx="1992.1355" cy="-18" rx="107.781" ry="18"/>
<text text-anchor="middle" x="1992.1355" y="-14.3" font-family="Times,serif" font-size="14.00" fill="#000000">canros/server.launch</text>
</g>
<!-- spear_rover/rover.launch&#45;&gt;canros/server.launch -->
<g id="edge1" class="edge">
<title>spear_rover/rover.launch&#45;&gt;canros/server.launch</title>
<path fill="none" stroke="#000000" d="M1860.8971,-72.937C1885.4049,-62.6779 1916.7648,-49.5505 1942.6835,-38.7009"/>
<polygon fill="#000000" stroke="#000000" points="1944.0906,-41.9062 1951.9635,-34.8162 1941.3876,-35.4491 1944.0906,-41.9062"/>
</g>
<!-- spear_rover/robot_description.launch -->
<g id="node7" class="node">
<title>spear_rover/robot_description.launch</title>
<ellipse fill="none" stroke="#000000" cx="1338.1355" cy="-18" rx="185.7671" ry="18"/>
<text text-anchor="middle" x="1338.1355" y="-14.3" font-family="Times,serif" font-size="14.00" fill="#000000">spear_rover/robot_description.launch</text>
</g>
<!-- spear_rover/rover.launch&#45;&gt;spear_rover/robot_description.launch -->
<g id="edge2" class="edge">
<title>spear_rover/rover.launch&#45;&gt;spear_rover/robot_description.launch</title>
<path fill="none" stroke="#000000" d="M1732.5695,-76.9196C1653.0724,-65.0445 1535.4453,-47.4737 1449.3318,-34.6102"/>
<polygon fill="#000000" stroke="#000000" points="1449.663,-31.121 1439.2557,-33.1051 1448.6288,-38.0441 1449.663,-31.121"/>
</g>
<!-- spear_rover/sensors.launch -->
<g id="node8" class="node">
<title>spear_rover/sensors.launch</title>
<ellipse fill="none" stroke="#000000" cx="1727.1355" cy="-18" rx="139.1754" ry="18"/>
<text text-anchor="middle" x="1727.1355" y="-14.3" font-family="Times,serif" font-size="14.00" fill="#000000">spear_rover/sensors.launch</text>
</g>
<!-- spear_rover/rover.launch&#45;&gt;spear_rover/sensors.launch -->
<g id="edge3" class="edge">
<title>spear_rover/rover.launch&#45;&gt;spear_rover/sensors.launch</title>
<path fill="none" stroke="#000000" d="M1797.1468,-72.2022C1785.4098,-63.1156 1770.961,-51.9294 1758.2435,-42.0836"/>
<polygon fill="#000000" stroke="#000000" points="1760.232,-39.1968 1750.1821,-35.8425 1755.9468,-44.7319 1760.232,-39.1968"/>
</g>
<!-- spear_rover/move_base.launch -->
<g id="node9" class="node">
<title>spear_rover/move_base.launch</title>
<ellipse fill="none" stroke="#000000" cx="3202.1355" cy="-90" rx="154.8728" ry="18"/>
<text text-anchor="middle" x="3202.1355" y="-86.3" font-family="Times,serif" font-size="14.00" fill="#000000">spear_rover/move_base.launch</text>
</g>
<!-- spear_rover/rtabmap_obstacles.launch -->
<g id="node10" class="node">
<title>spear_rover/rtabmap_obstacles.launch</title>
<ellipse fill="none" stroke="#000000" cx="3566.1355" cy="-90" rx="191.9663" ry="18"/>
<text text-anchor="middle" x="3566.1355" y="-86.3" font-family="Times,serif" font-size="14.00" fill="#000000">spear_rover/rtabmap_obstacles.launch</text>
</g>
<!-- spear_rover/navigate.launch -->
<g id="node11" class="node">
<title>spear_rover/navigate.launch</title>
<ellipse fill="none" stroke="#000000" cx="2138.1355" cy="-162" rx="143.7746" ry="18"/>
<text text-anchor="middle" x="2138.1355" y="-158.3" font-family="Times,serif" font-size="14.00" fill="#000000">spear_rover/navigate.launch</text>
</g>
<!-- spear_rover/navigate.launch&#45;&gt;spear_rover/rover.launch -->
<g id="edge4" class="edge">
<title>spear_rover/navigate.launch&#45;&gt;spear_rover/rover.launch</title>
<path fill="none" stroke="#000000" d="M2068.3491,-146.1993C2017.9377,-134.7854 1949.8362,-119.3662 1897.7182,-107.5659"/>
<polygon fill="#000000" stroke="#000000" points="1898.3756,-104.1262 1887.8496,-105.3315 1896.8298,-110.9534 1898.3756,-104.1262"/>
</g>
<!-- spear_rover/navigate.launch&#45;&gt;spear_rover/move_base.launch -->
<g id="edge8" class="edge">
<title>spear_rover/navigate.launch&#45;&gt;spear_rover/move_base.launch</title>
<path fill="none" stroke="#000000" d="M2273.7598,-155.9931C2450.2222,-147.6911 2768.0382,-131.0779 3039.1355,-108 3053.3107,-106.7933 3068.1623,-105.3719 3082.8863,-103.8656"/>
<polygon fill="#000000" stroke="#000000" points="3083.4643,-107.3245 3093.0495,-102.8107 3082.7416,-100.3619 3083.4643,-107.3245"/>
</g>
<!-- spear_rover/navigate.launch&#45;&gt;spear_rover/rtabmap_obstacles.launch -->
<g id="edge12" class="edge">
<title>spear_rover/navigate.launch&#45;&gt;spear_rover/rtabmap_obstacles.launch</title>
<path fill="none" stroke="#000000" d="M2278.215,-157.9288C2506.3382,-150.8292 2972.2265,-134.3729 3366.1355,-108 3384.2691,-106.7859 3403.3109,-105.3199 3422.1391,-103.7549"/>
<polygon fill="#000000" stroke="#000000" points="3422.5924,-107.2292 3432.2635,-102.9023 3422.005,-100.2539 3422.5924,-107.2292"/>
</g>
<!-- spear_simulator/rover.launch -->
<g id="node12" class="node">
<title>spear_simulator/rover.launch</title>
<ellipse fill="none" stroke="#000000" cx="927.1355" cy="-90" rx="146.774" ry="18"/>
<text text-anchor="middle" x="927.1355" y="-86.3" font-family="Times,serif" font-size="14.00" fill="#000000">spear_simulator/rover.launch</text>
</g>
<!-- spear_rover/navigate.launch&#45;&gt;spear_simulator/rover.launch -->
<g id="edge5" class="edge">
<title>spear_rover/navigate.launch&#45;&gt;spear_simulator/rover.launch</title>
<path fill="none" stroke="#000000" d="M1998.4322,-157.6847C1796.2746,-150.7967 1410.5187,-135.2381 1083.1355,-108 1069.2283,-106.8429 1054.6457,-105.4289 1040.2137,-103.907"/>
<polygon fill="#000000" stroke="#000000" points="1040.5731,-100.4255 1030.2566,-102.8379 1039.8258,-107.3855 1040.5731,-100.4255"/>
</g>
<!-- spear_rover/udp.launch -->
<g id="node13" class="node">
<title>spear_rover/udp.launch</title>
<ellipse fill="none" stroke="#000000" cx="1213.1355" cy="-90" rx="120.7786" ry="18"/>
<text text-anchor="middle" x="1213.1355" y="-86.3" font-family="Times,serif" font-size="14.00" fill="#000000">spear_rover/udp.launch</text>
</g>
<!-- spear_rover/navigate.launch&#45;&gt;spear_rover/udp.launch -->
<g id="edge6" class="edge">
<title>spear_rover/navigate.launch&#45;&gt;spear_rover/udp.launch</title>
<path fill="none" stroke="#000000" d="M2003.2048,-155.7088C1844.8549,-147.6607 1574.4922,-131.845 1343.1355,-108 1332.0918,-106.8618 1320.5424,-105.5047 1309.08,-104.0534"/>
<polygon fill="#000000" stroke="#000000" points="1309.4103,-100.567 1299.0443,-102.7568 1308.5134,-107.5094 1309.4103,-100.567"/>
</g>
<!-- spear_simulator/steering.launch -->
<g id="node14" class="node">
<title>spear_simulator/steering.launch</title>
<ellipse fill="none" stroke="#000000" cx="1513.1355" cy="-90" rx="161.3716" ry="18"/>
<text text-anchor="middle" x="1513.1355" y="-86.3" font-family="Times,serif" font-size="14.00" fill="#000000">spear_simulator/steering.launch</text>
</g>
<!-- spear_rover/navigate.launch&#45;&gt;spear_simulator/steering.launch -->
<g id="edge7" class="edge">
<title>spear_rover/navigate.launch&#45;&gt;spear_simulator/steering.launch</title>
<path fill="none" stroke="#000000" d="M2032.1128,-149.7862C1922.2991,-137.1356 1750.914,-117.3921 1635.4416,-104.0897"/>
<polygon fill="#000000" stroke="#000000" points="1635.8253,-100.6108 1625.4904,-102.9433 1635.0241,-107.5648 1635.8253,-100.6108"/>
</g>
<!-- spear_rover/state_estimate.launch -->
<g id="node15" class="node">
<title>spear_rover/state_estimate.launch</title>
<ellipse fill="none" stroke="#000000" cx="2138.1355" cy="-90" rx="172.4698" ry="18"/>
<text text-anchor="middle" x="2138.1355" y="-86.3" font-family="Times,serif" font-size="14.00" fill="#000000">spear_rover/state_estimate.launch</text>
</g>
<!-- spear_rover/navigate.launch&#45;&gt;spear_rover/state_estimate.launch -->
<g id="edge9" class="edge">
<title>spear_rover/navigate.launch&#45;&gt;spear_rover/state_estimate.launch</title>
<path fill="none" stroke="#000000" d="M2138.1355,-143.8314C2138.1355,-136.131 2138.1355,-126.9743 2138.1355,-118.4166"/>
<polygon fill="#000000" stroke="#000000" points="2141.6356,-118.4132 2138.1355,-108.4133 2134.6356,-118.4133 2141.6356,-118.4132"/>
</g>
<!-- spear_rover/visual_odom.launch -->
<g id="node16" class="node">
<title>spear_rover/visual_odom.launch</title>
<ellipse fill="none" stroke="#000000" cx="2489.1355" cy="-90" rx="161.3716" ry="18"/>
<text text-anchor="middle" x="2489.1355" y="-86.3" font-family="Times,serif" font-size="14.00" fill="#000000">spear_rover/visual_odom.launch</text>
</g>
<!-- spear_rover/navigate.launch&#45;&gt;spear_rover/visual_odom.launch -->
<g id="edge10" class="edge">
<title>spear_rover/navigate.launch&#45;&gt;spear_rover/visual_odom.launch</title>
<path fill="none" stroke="#000000" d="M2213.4338,-146.5542C2268.7509,-135.2071 2344.0416,-119.7629 2401.9666,-107.8808"/>
<polygon fill="#000000" stroke="#000000" points="2402.7455,-111.294 2411.8381,-105.8559 2401.3388,-104.4368 2402.7455,-111.294"/>
</g>
<!-- spear_simulator/visual_odom.launch -->
<g id="node17" class="node">
<title>spear_simulator/visual_odom.launch</title>
<ellipse fill="none" stroke="#000000" cx="2849.1355" cy="-90" rx="180.8681" ry="18"/>
<text text-anchor="middle" x="2849.1355" y="-86.3" font-family="Times,serif" font-size="14.00" fill="#000000">spear_simulator/visual_odom.launch</text>
</g>
<!-- spear_rover/navigate.launch&#45;&gt;spear_simulator/visual_odom.launch -->
<g id="edge11" class="edge">
<title>spear_rover/navigate.launch&#45;&gt;spear_simulator/visual_odom.launch</title>
<path fill="none" stroke="#000000" d="M2250.0114,-150.6708C2375.1505,-137.9985 2577.891,-117.4678 2712.3534,-103.8514"/>
<polygon fill="#000000" stroke="#000000" points="2712.7212,-107.3321 2722.3176,-102.8423 2712.0158,-100.3677 2712.7212,-107.3321"/>
</g>
<!-- spear_simulator/rover.launch&#45;&gt;spear_rover/robot_description.launch -->
<g id="edge19" class="edge">
<title>spear_simulator/rover.launch&#45;&gt;spear_rover/robot_description.launch</title>
<path fill="none" stroke="#000000" d="M1011.7966,-75.1689C1077.4212,-63.6726 1168.5448,-47.7093 1237.8273,-35.5722"/>
<polygon fill="#000000" stroke="#000000" points="1238.6392,-38.9834 1247.8852,-33.8103 1237.4312,-32.0884 1238.6392,-38.9834"/>
</g>
<!-- gazebo_ros/empty_world.launch -->
<g id="node20" class="node">
<title>gazebo_ros/empty_world.launch</title>
<ellipse fill="none" stroke="#000000" cx="927.1355" cy="-18" rx="160.5715" ry="18"/>
<text text-anchor="middle" x="927.1355" y="-14.3" font-family="Times,serif" font-size="14.00" fill="#000000">gazebo_ros/empty_world.launch</text>
</g>
<!-- spear_simulator/rover.launch&#45;&gt;gazebo_ros/empty_world.launch -->
<g id="edge18" class="edge">
<title>spear_simulator/rover.launch&#45;&gt;gazebo_ros/empty_world.launch</title>
<path fill="none" stroke="#000000" d="M927.1355,-71.8314C927.1355,-64.131 927.1355,-54.9743 927.1355,-46.4166"/>
<polygon fill="#000000" stroke="#000000" points="930.6356,-46.4132 927.1355,-36.4133 923.6356,-46.4133 930.6356,-46.4132"/>
</g>
<!-- zed_wrapper/zed_camera.launch -->
<g id="node18" class="node">
<title>zed_wrapper/zed_camera.launch</title>
<ellipse fill="none" stroke="#000000" cx="2489.1355" cy="-18" rx="163.2712" ry="18"/>
<text text-anchor="middle" x="2489.1355" y="-14.3" font-family="Times,serif" font-size="14.00" fill="#000000">zed_wrapper/zed_camera.launch</text>
</g>
<!-- spear_rover/visual_odom.launch&#45;&gt;zed_wrapper/zed_camera.launch -->
<g id="edge13" class="edge">
<title>spear_rover/visual_odom.launch&#45;&gt;zed_wrapper/zed_camera.launch</title>
<path fill="none" stroke="#000000" d="M2489.1355,-71.8314C2489.1355,-64.131 2489.1355,-54.9743 2489.1355,-46.4166"/>
<polygon fill="#000000" stroke="#000000" points="2492.6356,-46.4132 2489.1355,-36.4133 2485.6356,-46.4133 2492.6356,-46.4132"/>
</g>
<!-- spear_rover/drive.launch -->
<g id="node19" class="node">
<title>spear_rover/drive.launch</title>
<ellipse fill="none" stroke="#000000" cx="1363.1355" cy="-162" rx="127.2775" ry="18"/>
<text text-anchor="middle" x="1363.1355" y="-158.3" font-family="Times,serif" font-size="14.00" fill="#000000">spear_rover/drive.launch</text>
</g>
<!-- spear_rover/drive.launch&#45;&gt;spear_rover/rover.launch -->
<g id="edge14" class="edge">
<title>spear_rover/drive.launch&#45;&gt;spear_rover/rover.launch</title>
<path fill="none" stroke="#000000" d="M1448.29,-148.584C1526.7933,-136.2158 1643.1629,-117.8819 1724.7578,-105.0267"/>
<polygon fill="#000000" stroke="#000000" points="1725.6972,-108.4219 1735.0307,-103.4082 1724.6078,-101.5072 1725.6972,-108.4219"/>
</g>
<!-- spear_rover/drive.launch&#45;&gt;spear_simulator/rover.launch -->
<g id="edge15" class="edge">
<title>spear_rover/drive.launch&#45;&gt;spear_simulator/rover.launch</title>
<path fill="none" stroke="#000000" d="M1280.101,-148.2879C1207.3906,-136.2807 1101.6554,-118.8198 1024.8807,-106.1414"/>
<polygon fill="#000000" stroke="#000000" points="1025.1571,-102.6397 1014.7204,-104.4636 1024.0165,-109.5462 1025.1571,-102.6397"/>
</g>
<!-- spear_rover/drive.launch&#45;&gt;spear_rover/udp.launch -->
<g id="edge16" class="edge">
<title>spear_rover/drive.launch&#45;&gt;spear_rover/udp.launch</title>
<path fill="none" stroke="#000000" d="M1326.8247,-144.5708C1306.1889,-134.6656 1280.1721,-122.1775 1258.2358,-111.6481"/>
<polygon fill="#000000" stroke="#000000" points="1259.6418,-108.4407 1249.112,-107.2687 1256.6126,-114.7514 1259.6418,-108.4407"/>
</g>
<!-- spear_rover/drive.launch&#45;&gt;spear_simulator/steering.launch -->
<g id="edge17" class="edge">
<title>spear_rover/drive.launch&#45;&gt;spear_simulator/steering.launch</title>
<path fill="none" stroke="#000000" d="M1399.4463,-144.5708C1419.8545,-134.7749 1445.5257,-122.4527 1467.3079,-111.9972"/>
<polygon fill="#000000" stroke="#000000" points="1468.8777,-115.1261 1476.3784,-107.6434 1465.8486,-108.8155 1468.8777,-115.1261"/>
</g>
</g>
</svg>
