<?xml version="1.0" encoding="UTF-8" standalone="no"?>
<!DOCTYPE svg PUBLIC "-//W3C//DTD SVG 1.1//EN"
 "http://www.w3.org/Graphics/SVG/1.1/DTD/svg11.dtd">
<!-- Generated by graphviz version 2.40.1 (20161225.0304)
 -->
<!-- Title: %3 Pages: 1 -->
<svg width="3568pt" height="260pt"
 viewBox="0.00 0.00 3568.07 260.00" xmlns="http://www.w3.org/2000/svg" xmlns:xlink="http://www.w3.org/1999/xlink">
<g id="graph0" class="graph" transform="scale(1 1) rotate(0) translate(4 256)">
<title>%3</title>
<polygon fill="#ffffff" stroke="transparent" points="-4,4 -4,-256 3564.0669,-256 3564.0669,4 -4,4"/>
<!-- spear_station/sar_driving.launch -->
<g id="node1" class="node">
<title>spear_station/sar_driving.launch</title>
<ellipse fill="none" stroke="#000000" cx="163.1355" cy="-234" rx="163.2712" ry="18"/>
<text text-anchor="middle" x="163.1355" y="-230.3" font-family="Times,serif" font-size="14.00" fill="#000000">spear_station/sar_driving.launch</text>
</g>
<!-- spear_station/joystick.launch -->
<g id="node2" class="node">
<title>spear_station/joystick.launch</title>
<ellipse fill="none" stroke="#000000" cx="492.1355" cy="-234" rx="147.5738" ry="18"/>
<text text-anchor="middle" x="492.1355" y="-230.3" font-family="Times,serif" font-size="14.00" fill="#000000">spear_station/joystick.launch</text>
</g>
<!-- spear_station/station.launch -->
<g id="node3" class="node">
<title>spear_station/station.launch</title>
<ellipse fill="none" stroke="#000000" cx="801.1355" cy="-234" rx="142.9746" ry="18"/>
<text text-anchor="middle" x="801.1355" y="-230.3" font-family="Times,serif" font-size="14.00" fill="#000000">spear_station/station.launch</text>
</g>
<!-- spear_station/udp.launch -->
<g id="node4" class="node">
<title>spear_station/udp.launch</title>
<ellipse fill="none" stroke="#000000" cx="1090.1355" cy="-234" rx="128.0773" ry="18"/>
<text text-anchor="middle" x="1090.1355" y="-230.3" font-family="Times,serif" font-size="14.00" fill="#000000">spear_station/udp.launch</text>
</g>
<!-- spear_rover/rover.launch -->
<g id="node5" class="node">
<title>spear_rover/rover.launch</title>
<ellipse fill="none" stroke="#000000" cx="1516.1355" cy="-162" rx="127.2775" ry="18"/>
<text text-anchor="middle" x="1516.1355" y="-158.3" font-family="Times,serif" font-size="14.00" fill="#000000">spear_rover/rover.launch</text>
</g>
<!-- canros/server.launch -->
<g id="node6" class="node">
<title>canros/server.launch</title>
<ellipse fill="none" stroke="#000000" cx="1200.1355" cy="-90" rx="107.781" ry="18"/>
<text text-anchor="middle" x="1200.1355" y="-86.3" font-family="Times,serif" font-size="14.00" fill="#000000">canros/server.launch</text>
</g>
<!-- spear_rover/rover.launch&#45;&gt;canros/server.launch -->
<g id="edge1" class="edge">
<title>spear_rover/rover.launch&#45;&gt;canros/server.launch</title>
<path fill="none" stroke="#000000" d="M1448.7332,-146.6425C1397.3918,-134.9445 1326.7739,-118.8543 1273.9202,-106.8117"/>
<polygon fill="#000000" stroke="#000000" points="1274.4601,-103.3451 1263.9324,-104.536 1272.905,-110.1702 1274.4601,-103.3451"/>
</g>
<!-- spear_rover/robot_description.launch -->
<g id="node7" class="node">
<title>spear_rover/robot_description.launch</title>
<ellipse fill="none" stroke="#000000" cx="1808.1355" cy="-90" rx="185.7671" ry="18"/>
<text text-anchor="middle" x="1808.1355" y="-86.3" font-family="Times,serif" font-size="14.00" fill="#000000">spear_rover/robot_description.launch</text>
</g>
<!-- spear_rover/rover.launch&#45;&gt;spear_rover/robot_description.launch -->
<g id="edge2" class="edge">
<title>spear_rover/rover.launch&#45;&gt;spear_rover/robot_description.launch</title>
<path fill="none" stroke="#000000" d="M1579.4952,-146.3771C1623.7332,-135.4691 1683.0645,-120.8394 1730.2011,-109.2167"/>
<polygon fill="#000000" stroke="#000000" points="1731.1933,-112.577 1740.0646,-106.7846 1729.5174,-105.7805 1731.1933,-112.577"/>
</g>
<!-- spear_rover/sensors.launch -->
<g id="node8" class="node">
<title>spear_rover/sensors.launch</title>
<ellipse fill="none" stroke="#000000" cx="1465.1355" cy="-90" rx="139.1754" ry="18"/>
<text text-anchor="middle" x="1465.1355" y="-86.3" font-family="Times,serif" font-size="14.00" fill="#000000">spear_rover/sensors.launch</text>
</g>
<!-- spear_rover/rover.launch&#45;&gt;spear_rover/sensors.launch -->
<g id="edge3" class="edge">
<title>spear_rover/rover.launch&#45;&gt;spear_rover/sensors.launch</title>
<path fill="none" stroke="#000000" d="M1503.2661,-143.8314C1497.452,-135.6232 1490.4659,-125.7606 1484.0709,-116.7323"/>
<polygon fill="#000000" stroke="#000000" points="1486.8146,-114.5505 1478.1783,-108.4133 1481.1024,-118.5966 1486.8146,-114.5505"/>
</g>
<!-- spear_rover/move_base.launch -->
<g id="node9" class="node">
<title>spear_rover/move_base.launch</title>
<ellipse fill="none" stroke="#000000" cx="2128.1355" cy="-162" rx="154.8728" ry="18"/>
<text text-anchor="middle" x="2128.1355" y="-158.3" font-family="Times,serif" font-size="14.00" fill="#000000">spear_rover/move_base.launch</text>
</g>
<!-- spear_rover/navigate.launch -->
<g id="node10" class="node">
<title>spear_rover/navigate.launch</title>
<ellipse fill="none" stroke="#000000" cx="1968.1355" cy="-234" rx="143.7746" ry="18"/>
<text text-anchor="middle" x="1968.1355" y="-230.3" font-family="Times,serif" font-size="14.00" fill="#000000">spear_rover/navigate.launch</text>
</g>
<!-- spear_rover/navigate.launch&#45;&gt;spear_rover/rover.launch -->
<g id="edge4" class="edge">
<title>spear_rover/navigate.launch&#45;&gt;spear_rover/rover.launch</title>
<path fill="none" stroke="#000000" d="M1879.1047,-219.8181C1801.6596,-207.4817 1689.761,-189.6572 1610.7226,-177.067"/>
<polygon fill="#000000" stroke="#000000" points="1611.193,-173.5978 1600.7669,-175.4811 1610.0918,-180.5107 1611.193,-173.5978"/>
</g>
<!-- spear_rover/navigate.launch&#45;&gt;spear_rover/move_base.launch -->
<g id="edge8" class="edge">
<title>spear_rover/navigate.launch&#45;&gt;spear_rover/move_base.launch</title>
<path fill="none" stroke="#000000" d="M2006.8671,-216.5708C2028.8142,-206.6946 2056.4678,-194.2505 2079.8234,-183.7405"/>
<polygon fill="#000000" stroke="#000000" points="2081.5232,-186.8137 2089.2061,-179.5182 2078.6506,-180.4302 2081.5232,-186.8137"/>
</g>
<!-- spear_simulator/rover.launch -->
<g id="node11" class="node">
<title>spear_simulator/rover.launch</title>
<ellipse fill="none" stroke="#000000" cx="1808.1355" cy="-162" rx="146.774" ry="18"/>
<text text-anchor="middle" x="1808.1355" y="-158.3" font-family="Times,serif" font-size="14.00" fill="#000000">spear_simulator/rover.launch</text>
</g>
<!-- spear_rover/navigate.launch&#45;&gt;spear_simulator/rover.launch -->
<g id="edge5" class="edge">
<title>spear_rover/navigate.launch&#45;&gt;spear_simulator/rover.launch</title>
<path fill="none" stroke="#000000" d="M1929.404,-216.5708C1907.3755,-206.658 1879.5983,-194.1583 1856.1883,-183.6238"/>
<polygon fill="#000000" stroke="#000000" points="1857.3429,-180.3053 1846.7874,-179.3933 1854.4703,-186.6888 1857.3429,-180.3053"/>
</g>
<!-- spear_rover/udp.launch -->
<g id="node12" class="node">
<title>spear_rover/udp.launch</title>
<ellipse fill="none" stroke="#000000" cx="909.1355" cy="-162" rx="120.7786" ry="18"/>
<text text-anchor="middle" x="909.1355" y="-158.3" font-family="Times,serif" font-size="14.00" fill="#000000">spear_rover/udp.launch</text>
</g>
<!-- spear_rover/navigate.launch&#45;&gt;spear_rover/udp.launch -->
<g id="edge6" class="edge">
<title>spear_rover/navigate.launch&#45;&gt;spear_rover/udp.launch</title>
<path fill="none" stroke="#000000" d="M1828.9702,-229.3641C1647.0628,-222.5136 1318.6997,-207.4357 1039.1355,-180 1027.911,-178.8985 1016.1668,-177.5499 1004.5235,-176.0911"/>
<polygon fill="#000000" stroke="#000000" points="1004.6972,-172.5848 994.3331,-174.7841 1003.8066,-179.5279 1004.6972,-172.5848"/>
</g>
<!-- spear_simulator/steering.launch -->
<g id="node13" class="node">
<title>spear_simulator/steering.launch</title>
<ellipse fill="none" stroke="#000000" cx="1209.1355" cy="-162" rx="161.3716" ry="18"/>
<text text-anchor="middle" x="1209.1355" y="-158.3" font-family="Times,serif" font-size="14.00" fill="#000000">spear_simulator/steering.launch</text>
</g>
<!-- spear_rover/navigate.launch&#45;&gt;spear_simulator/steering.launch -->
<g id="edge7" class="edge">
<title>spear_rover/navigate.launch&#45;&gt;spear_simulator/steering.launch</title>
<path fill="none" stroke="#000000" d="M1850.3944,-223.6507C1731.6553,-213.1046 1543.1105,-196.0605 1380.1355,-180 1365.8944,-178.5966 1350.9907,-177.0876 1336.1719,-175.5618"/>
<polygon fill="#000000" stroke="#000000" points="1336.2423,-172.0506 1325.9355,-174.5039 1335.5227,-179.0135 1336.2423,-172.0506"/>
</g>
<!-- spear_rover/state_estimate.launch -->
<g id="node14" class="node">
<title>spear_rover/state_estimate.launch</title>
<ellipse fill="none" stroke="#000000" cx="2473.1355" cy="-162" rx="172.4698" ry="18"/>
<text text-anchor="middle" x="2473.1355" y="-158.3" font-family="Times,serif" font-size="14.00" fill="#000000">spear_rover/state_estimate.launch</text>
</g>
<!-- spear_rover/navigate.launch&#45;&gt;spear_rover/state_estimate.launch -->
<g id="edge9" class="edge">
<title>spear_rover/navigate.launch&#45;&gt;spear_rover/state_estimate.launch</title>
<path fill="none" stroke="#000000" d="M2063.1222,-220.4574C2147.805,-208.3838 2271.8433,-190.6991 2361.2946,-177.9456"/>
<polygon fill="#000000" stroke="#000000" points="2361.7989,-181.4092 2371.2048,-176.5327 2360.8109,-174.4793 2361.7989,-181.4092"/>
</g>
<!-- spear_rover/visual_odom_and_slam.launch -->
<g id="node15" class="node">
<title>spear_rover/visual_odom_and_slam.launch</title>
<ellipse fill="none" stroke="#000000" cx="3350.1355" cy="-162" rx="209.8628" ry="18"/>
<text text-anchor="middle" x="3350.1355" y="-158.3" font-family="Times,serif" font-size="14.00" fill="#000000">spear_rover/visual_odom_and_slam.launch</text>
</g>
<!-- spear_rover/navigate.launch&#45;&gt;spear_rover/visual_odom_and_slam.launch -->
<g id="edge10" class="edge">
<title>spear_rover/navigate.launch&#45;&gt;spear_rover/visual_odom_and_slam.launch</title>
<path fill="none" stroke="#000000" d="M2106.52,-229.1696C2324.5349,-221.1999 2761.2483,-203.7805 3131.1355,-180 3151.011,-178.7222 3171.8879,-177.2169 3192.5311,-175.6302"/>
<polygon fill="#000000" stroke="#000000" points="3192.9418,-179.1089 3202.6409,-174.8453 3192.4,-172.1299 3192.9418,-179.1089"/>
</g>
<!-- spear_simulator/visual_odom_and_slam.launch -->
<g id="node16" class="node">
<title>spear_simulator/visual_odom_and_slam.launch</title>
<ellipse fill="none" stroke="#000000" cx="2893.1355" cy="-162" rx="229.3593" ry="18"/>
<text text-anchor="middle" x="2893.1355" y="-158.3" font-family="Times,serif" font-size="14.00" fill="#000000">spear_simulator/visual_odom_and_slam.launch</text>
</g>
<!-- spear_rover/navigate.launch&#45;&gt;spear_simulator/visual_odom_and_slam.launch -->
<g id="edge11" class="edge">
<title>spear_rover/navigate.launch&#45;&gt;spear_simulator/visual_odom_and_slam.launch</title>
<path fill="none" stroke="#000000" d="M2090.491,-224.4761C2251.8879,-211.9133 2536.87,-189.7309 2720.2334,-175.4583"/>
<polygon fill="#000000" stroke="#000000" points="2720.5516,-178.9442 2730.2498,-174.6787 2720.0083,-171.9654 2720.5516,-178.9442"/>
</g>
<!-- spear_simulator/rover.launch&#45;&gt;spear_rover/robot_description.launch -->
<g id="edge20" class="edge">
<title>spear_simulator/rover.launch&#45;&gt;spear_rover/robot_description.launch</title>
<path fill="none" stroke="#000000" d="M1808.1355,-143.8314C1808.1355,-136.131 1808.1355,-126.9743 1808.1355,-118.4166"/>
<polygon fill="#000000" stroke="#000000" points="1811.6356,-118.4132 1808.1355,-108.4133 1804.6356,-118.4133 1811.6356,-118.4132"/>
</g>
<!-- gazebo_ros/empty_world.launch -->
<g id="node21" class="node">
<title>gazebo_ros/empty_world.launch</title>
<ellipse fill="none" stroke="#000000" cx="2172.1355" cy="-90" rx="160.5715" ry="18"/>
<text text-anchor="middle" x="2172.1355" y="-86.3" font-family="Times,serif" font-size="14.00" fill="#000000">gazebo_ros/empty_world.launch</text>
</g>
<!-- spear_simulator/rover.launch&#45;&gt;gazebo_ros/empty_world.launch -->
<g id="edge19" class="edge">
<title>spear_simulator/rover.launch&#45;&gt;gazebo_ros/empty_world.launch</title>
<path fill="none" stroke="#000000" d="M1885.7762,-146.6425C1943.5291,-135.2189 2022.4573,-119.6067 2082.8258,-107.6657"/>
<polygon fill="#000000" stroke="#000000" points="2083.5978,-111.0809 2092.7286,-105.7069 2082.2394,-104.2139 2083.5978,-111.0809"/>
</g>
<!-- spear_rover/rtabmap_slam.launch -->
<g id="node18" class="node">
<title>spear_rover/rtabmap_slam.launch</title>
<ellipse fill="none" stroke="#000000" cx="2946.1355" cy="-90" rx="169.77" ry="18"/>
<text text-anchor="middle" x="2946.1355" y="-86.3" font-family="Times,serif" font-size="14.00" fill="#000000">spear_rover/rtabmap_slam.launch</text>
</g>
<!-- spear_rover/visual_odom_and_slam.launch&#45;&gt;spear_rover/rtabmap_slam.launch -->
<g id="edge18" class="edge">
<title>spear_rover/visual_odom_and_slam.launch&#45;&gt;spear_rover/rtabmap_slam.launch</title>
<path fill="none" stroke="#000000" d="M3258.9663,-145.752C3194.6606,-134.2916 3108.6508,-118.9631 3043.0926,-107.2795"/>
<polygon fill="#000000" stroke="#000000" points="3043.6228,-103.8189 3033.1638,-105.51 3042.3946,-110.7103 3043.6228,-103.8189"/>
</g>
<!-- zed_wrapper/zed_camera.launch -->
<g id="node20" class="node">
<title>zed_wrapper/zed_camera.launch</title>
<ellipse fill="none" stroke="#000000" cx="3350.1355" cy="-90" rx="163.2712" ry="18"/>
<text text-anchor="middle" x="3350.1355" y="-86.3" font-family="Times,serif" font-size="14.00" fill="#000000">zed_wrapper/zed_camera.launch</text>
</g>
<!-- spear_rover/visual_odom_and_slam.launch&#45;&gt;zed_wrapper/zed_camera.launch -->
<g id="edge17" class="edge">
<title>spear_rover/visual_odom_and_slam.launch&#45;&gt;zed_wrapper/zed_camera.launch</title>
<path fill="none" stroke="#000000" d="M3350.1355,-143.8314C3350.1355,-136.131 3350.1355,-126.9743 3350.1355,-118.4166"/>
<polygon fill="#000000" stroke="#000000" points="3353.6356,-118.4132 3350.1355,-108.4133 3346.6356,-118.4133 3353.6356,-118.4132"/>
</g>
<!-- spear_simulator/visual_odom_and_slam.launch&#45;&gt;spear_rover/rtabmap_slam.launch -->
<g id="edge21" class="edge">
<title>spear_simulator/visual_odom_and_slam.launch&#45;&gt;spear_rover/rtabmap_slam.launch</title>
<path fill="none" stroke="#000000" d="M2906.5097,-143.8314C2912.5518,-135.6232 2919.8118,-125.7606 2926.4576,-116.7323"/>
<polygon fill="#000000" stroke="#000000" points="2929.4718,-118.5415 2932.5813,-108.4133 2923.8344,-114.3918 2929.4718,-118.5415"/>
</g>
<!-- spear_rover/drive.launch -->
<g id="node17" class="node">
<title>spear_rover/drive.launch</title>
<ellipse fill="none" stroke="#000000" cx="1363.1355" cy="-234" rx="127.2775" ry="18"/>
<text text-anchor="middle" x="1363.1355" y="-230.3" font-family="Times,serif" font-size="14.00" fill="#000000">spear_rover/drive.launch</text>
</g>
<!-- spear_rover/drive.launch&#45;&gt;spear_rover/rover.launch -->
<g id="edge12" class="edge">
<title>spear_rover/drive.launch&#45;&gt;spear_rover/rover.launch</title>
<path fill="none" stroke="#000000" d="M1399.7828,-216.7542C1420.8234,-206.8528 1447.4443,-194.3253 1469.9111,-183.7527"/>
<polygon fill="#000000" stroke="#000000" points="1471.6991,-186.7795 1479.257,-179.3546 1468.7185,-180.4458 1471.6991,-186.7795"/>
</g>
<!-- spear_rover/drive.launch&#45;&gt;spear_simulator/rover.launch -->
<g id="edge13" class="edge">
<title>spear_rover/drive.launch&#45;&gt;spear_simulator/rover.launch</title>
<path fill="none" stroke="#000000" d="M1447.0981,-220.4151C1521.6134,-208.3586 1630.559,-190.7315 1709.2662,-177.9968"/>
<polygon fill="#000000" stroke="#000000" points="1709.8815,-181.4429 1719.1941,-176.3905 1708.7634,-174.5327 1709.8815,-181.4429"/>
</g>
<!-- spear_rover/drive.launch&#45;&gt;spear_rover/udp.launch -->
<g id="edge14" class="edge">
<title>spear_rover/drive.launch&#45;&gt;spear_rover/udp.launch</title>
<path fill="none" stroke="#000000" d="M1278.2742,-220.5418C1199.7613,-208.0904 1083.2887,-189.619 1002.2465,-176.7665"/>
<polygon fill="#000000" stroke="#000000" points="1002.473,-173.2588 992.0482,-175.1491 1001.3765,-180.1724 1002.473,-173.2588"/>
</g>
<!-- spear_rover/drive.launch&#45;&gt;spear_simulator/steering.launch -->
<g id="edge15" class="edge">
<title>spear_rover/drive.launch&#45;&gt;spear_simulator/steering.launch</title>
<path fill="none" stroke="#000000" d="M1326.2487,-216.7542C1305.1325,-206.8817 1278.4323,-194.3985 1255.8604,-183.8454"/>
<polygon fill="#000000" stroke="#000000" points="1257.3324,-180.67 1246.7912,-179.6053 1254.3677,-187.0112 1257.3324,-180.67"/>
</g>
<!-- rtabmap_ros/rtabmap.launch -->
<g id="node19" class="node">
<title>rtabmap_ros/rtabmap.launch</title>
<ellipse fill="none" stroke="#000000" cx="2946.1355" cy="-18" rx="146.4744" ry="18"/>
<text text-anchor="middle" x="2946.1355" y="-14.3" font-family="Times,serif" font-size="14.00" fill="#000000">rtabmap_ros/rtabmap.launch</text>
</g>
<!-- spear_rover/rtabmap_slam.launch&#45;&gt;rtabmap_ros/rtabmap.launch -->
<g id="edge16" class="edge">
<title>spear_rover/rtabmap_slam.launch&#45;&gt;rtabmap_ros/rtabmap.launch</title>
<path fill="none" stroke="#000000" d="M2946.1355,-71.8314C2946.1355,-64.131 2946.1355,-54.9743 2946.1355,-46.4166"/>
<polygon fill="#000000" stroke="#000000" points="2949.6356,-46.4132 2946.1355,-36.4133 2942.6356,-46.4133 2949.6356,-46.4132"/>
</g>
</g>
</svg>
